<svg width="32" height="32" viewBox="0 0 32 32" fill="none" xmlns="http://www.w3.org/2000/svg">
<mask id="mask0_1_217" style="mask-type:alpha" maskUnits="userSpaceOnUse" x="0" y="0" width="32" height="32">
<rect width="32" height="32" transform="matrix(-1 0 0 1 32 0)" fill="#D9D9D9"/>
</mask>
<g mask="url(#mask0_1_217)">
<path fill-rule="evenodd" clip-rule="evenodd" d="M16.3685 7.71387C13.2031 7.71387 10.4269 9.26895 8.79071 11.6164L8.71112 11.8767L14.297 11.8767V14.3767H4.9684V5.04807L7.4684 5.04807V8.50549C9.68778 6.16965 12.8587 4.71387 16.3685 4.71387C23.0279 4.71387 28.5 9.97145 28.5 16.5464C28.5 23.1214 23.0279 28.379 16.3685 28.379C12.1021 28.379 8.33645 26.228 6.17192 22.9599L8.67306 21.3033C10.2917 23.7472 13.1259 25.379 16.3685 25.379C21.4523 25.379 25.5 21.3845 25.5 16.5464C25.5 11.7084 21.4523 7.71387 16.3685 7.71387Z" fill="white"/>
</g>
</svg>
